<svg width="11" height="12" viewBox="0 0 11 12" fill="none" xmlns="http://www.w3.org/2000/svg">
<path d="M5.70405 2.23898C3.05631 2.25191 0.912244 4.36242 0.924848 6.94338C0.937451 9.52433 3.10203 11.6138 5.74977 11.6009C8.3975 11.5879 10.5416 9.47743 10.529 6.89648C10.5164 4.31552 8.35179 2.22605 5.70405 2.23898ZM5.74405 10.4306C3.7578 10.4403 2.13482 8.87367 2.12536 6.93751C2.11591 5.00136 3.72351 3.41892 5.70976 3.40922C7.69602 3.39952 9.319 4.96618 9.32845 6.90234C9.33791 8.83849 7.7303 10.4209 5.74405 10.4306Z" fill="#8C8C8C"/>
<path d="M5.11522 4.58239L6.31574 4.57652L6.33002 7.50211L5.12951 7.50797L5.11522 4.58239ZM3.89471 0.492424L7.49625 0.474836L7.50196 1.64507L3.90042 1.66266L3.89471 0.492424Z" fill="#8C8C8C"/>
<path d="M10.0893 3.8015L8.88326 2.63728L9.72813 1.80567L10.9342 2.96988L10.0893 3.8015Z" fill="#8C8C8C"/>
</svg>
